HIERARCHY
ROOT hip
{
	OFFSET 0.000000 0.000000 0.000000
	CHANNELS 6 Xposition Yposition Zposition Xrotation Zrotation Yrotation 
	JOINT abdomen
	{
		OFFSET 0.000000 3.422050 0.000000
		CHANNELS 3 Xrotation Zrotation Yrotation 
		JOINT chest
		{
			OFFSET 0.000000 8.486693 -0.684411
			CHANNELS 3 Xrotation Zrotation Yrotation 
			JOINT neck
			{
				OFFSET 0.000000 10.266162 -0.273764
				CHANNELS 3 Xrotation Zrotation Yrotation 
				JOINT head
				{
					OFFSET 0.000000 3.148285 0.000000
					CHANNELS 3 Xrotation Zrotation Yrotation 
					End Site
					{
						OFFSET 0.000000 3.148289 0.000000
					}
				}
			}
			JOINT lCollar
			{
				OFFSET 3.422053 6.707223 -0.821293
				CHANNELS 3 Yrotation Zrotation Xrotation 
				JOINT lShldr
				{
					OFFSET 3.285171 0.000000 0.000000
					CHANNELS 3 Zrotation Yrotation Xrotation 
					JOINT lForeArm
					{
						OFFSET 10.129278 0.000000 0.000000
						CHANNELS 3 Yrotation Zrotation Xrotation 
						JOINT lHand
						{
							OFFSET 8.486692 0.000000 0.000000
							CHANNELS 3 Zrotation Yrotation Xrotation 
							End Site
							{
								OFFSET 4.106464 0.000000 0.000000
							}
						}
					}
				}
			}
			JOINT rCollar
			{
				OFFSET -3.558935 6.707223 -0.821293
				CHANNELS 3 Yrotation Zrotation Xrotation 
				JOINT rShldr
				{
					OFFSET -3.148289 0.000000 0.000000
					CHANNELS 3 Zrotation Yrotation Xrotation 
					JOINT rForeArm
					{
						OFFSET -10.266159 0.000000 0.000000
						CHANNELS 3 Yrotation Zrotation Xrotation 
						JOINT rHand
						{
							OFFSET -8.349810 0.000000 0.000000
							CHANNELS 3 Zrotation Yrotation Xrotation 
							End Site
							{
								OFFSET -4.106464 0.000000 0.000000
							}
						}
					}
				}
			}
		}
	}
	JOINT lThigh
	{
		OFFSET 5.338403 -1.642589 1.368821
		CHANNELS 3 Xrotation Zrotation Yrotation 
		JOINT lShin
		{
			OFFSET -2.053232 -20.121670 0.000000
			CHANNELS 3 Xrotation Zrotation Yrotation 
			JOINT lFoot
			{
				OFFSET 0.000000 -19.300380 -1.231939
				CHANNELS 3 Xrotation Yrotation Zrotation 
				End Site
				{
					OFFSET 0.000000 -2.463878 4.653993
				}
			}
		}
	}
	JOINT rThigh
	{
		OFFSET -5.338403 -1.642589 1.368821
		CHANNELS 3 Xrotation Zrotation Yrotation 
		JOINT rShin
		{
			OFFSET 2.053232 -20.121670 0.000000
			CHANNELS 3 Xrotation Zrotation Yrotation 
			JOINT rFoot
			{
				OFFSET 0.000000 -19.300380 -1.231939
				CHANNELS 3 Xrotation Yrotation Zrotation 
				End Site
				{
					OFFSET 0.000000 -2.463878 4.653993
				}
			}
		}
	}
}
MOTION
Frames: 18
Frame Time: 0.033264
0.000000 43.528500 0.000000 0.000000 0.000000 0.000000 0.000000 0.000000 0.000000 0.000000 0.000000 0.000000 0.000000 0.000000 0.000000 0.000000 0.000000 0.000000 0.000000 0.000000 0.000000 0.000000 0.000000 0.000000 0.000000 0.000000 0.000000 0.000000 0.000000 0.000000 0.000000 0.000000 0.000000 0.000000 0.000000 0.000000 0.000000 0.000000 0.000000 0.000000 0.000000 0.000000 0.000000 0.000000 0.000000 0.000000 0.000000 0.000000 0.000000 0.000000 0.000000 0.000000 0.000000 0.000000 0.000000 0.000000 0.000000 0.000000 0.000000 0.000000 
0.501617 19.014986 -0.465591 2.999416 0.000000 -180.000000 -12.296071 -1.126789 -1.691976 -5.949150 -0.556749 -0.841293 -0.379433 0.000000 0.000000 -9.121347 0.000000 0.000000 -17.412668 -12.552102 -4.376492 -65.873497 -16.489584 -83.928268 31.941326 1.574363 74.643410 3.479298 33.763298 -4.838285 -26.217604 8.205678 -6.954835 54.109047 -23.906149 -85.187195 -36.889053 3.621569 73.079468 -45.675797 3.577472 11.723302 -23.573441 37.439640 -66.694077 116.894264 -40.575130 18.895521 69.527908 -48.520329 25.762915 -22.839506 -35.723766 65.150406 119.126656 39.919777 -17.484821 66.283028 48.250217 -23.080875 
0.501617 18.871140 -0.382153 2.998827 0.000000 -180.000000 -12.296071 -1.126789 -1.691976 -5.949150 -0.556749 -0.841293 -0.511518 0.000000 0.000000 -9.121346 0.000000 0.000000 -17.383574 -12.899768 -4.197108 -65.873497 -16.489584 -83.928268 31.594107 1.260959 74.649475 4.498312 32.522171 -4.584742 -25.799774 7.143043 -7.191780 54.538956 -24.185627 -85.325668 -38.615631 3.602762 73.190140 -45.675797 3.577472 11.723302 -23.895985 37.853989 -66.958916 117.437943 -40.391941 18.523312 69.679520 -48.666138 26.414722 -23.158594 -36.118355 65.410561 119.673042 39.719833 -17.116081 66.391365 48.413189 -23.670830 
0.501617 18.727295 -0.298715 2.998827 0.000000 -180.000000 -12.296071 -1.126789 -1.691976 -5.949150 -0.556749 -0.841293 -0.643636 0.000000 0.000000 -9.121347 0.000000 0.000000 -17.353319 -13.247409 -4.017257 -65.873497 -16.489584 -83.928268 31.246855 0.947437 74.653618 5.500116 31.273849 -4.359848 -25.386604 6.076992 -7.420788 54.970676 -24.464228 -85.466797 -40.348511 3.580547 73.300591 -45.675797 3.577472 11.723302 -24.222904 38.267273 -67.228325 117.978722 -40.206051 18.154324 69.834137 -48.810837 27.069258 -23.481613 -36.511868 65.674835 120.216331 39.517155 -16.750809 66.502625 48.575470 -24.263355 
0.501617 18.583450 -0.215277 2.998827 0.000000 -180.000000 -12.296072 -1.126789 -1.691976 -5.949150 -0.556749 -0.841293 -0.775785 0.000000 0.000000 -9.121347 0.000000 0.000000 -17.321892 -13.595011 -3.836927 -65.873497 -16.489586 -83.928268 30.899574 0.633824 74.655869 6.485886 30.019201 -4.162612 -24.977871 5.007801 -7.641969 55.404224 -24.741915 -85.610573 -42.086914 3.554923 73.410667 -45.675797 3.577472 11.723302 -24.554258 38.679424 -67.502342 118.516541 -40.017460 17.788568 69.991798 -48.954445 27.726517 -23.808641 -36.904255 65.943314 120.756462 39.311775 -16.389013 66.616806 48.737022 -24.858450 
0.501617 18.439604 -0.131839 2.998827 0.000000 -180.000000 -12.296070 -1.126789 -1.691976 -5.949149 -0.556749 -0.841293 -0.907966 0.000000 0.000000 -9.121347 0.000000 0.000000 -17.289286 -13.942563 -3.656107 -65.873497 -16.489584 -83.928268 30.552252 0.320141 74.656212 7.456740 28.759066 -3.992101 -24.573383 3.935756 -7.855437 55.839615 -25.018667 -85.757034 -43.830067 3.525893 73.520226 -45.675797 3.577472 11.723302 -24.890160 39.090424 -67.781105 119.051399 -39.826221 17.426077 70.152405 -49.096851 28.386429 -24.139734 -37.295483 66.216042 121.293427 39.103737 -16.030725 66.733948 48.897831 -25.456112 
0.501617 18.295757 -0.048401 2.998827 0.000000 -180.000000 -12.296070 -1.126789 -1.691976 -5.949150 -0.556749 -0.841293 -1.040179 0.000000 0.000000 -9.121346 0.000000 0.000000 -17.255499 -14.290058 -3.474788 -65.873497 -16.489584 -83.928268 30.204880 0.006407 74.654655 8.413752 27.494293 -3.847435 -24.172934 2.861137 -8.061291 56.276840 -25.294449 -85.906166 -45.577152 3.493466 73.629089 -45.675793 3.577472 11.723302 -25.230688 39.500217 -68.064682 119.583267 -39.632401 17.066893 70.316032 -49.238079 29.049025 -24.474979 -37.685516 66.493111 121.827217 38.893078 -15.675959 66.854019 49.057846 -26.056316 
0.501617 18.151913 0.035037 2.998827 0.000000 -180.000000 -12.296071 -1.126789 -1.691976 -5.949150 -0.556749 -0.841293 -1.172423 0.000000 0.000000 -9.121347 0.000000 0.000000 -17.220514 -14.637475 -3.292954 -65.873497 -16.489584 -83.928268 29.857454 -0.307351 74.651230 9.357928 26.225706 -3.727787 -23.776333 1.784230 -8.259631 56.715916 -25.569221 -86.057983 -47.327358 3.457677 73.737099 -45.675797 3.577472 11.723302 -25.575928 39.908733 -68.353149 120.112129 -39.435978 16.710999 70.482704 -49.378113 29.714273 -24.814434 -38.074295 66.774567 122.357826 38.679848 -15.324725 66.977074 49.217056 -26.659090 
0.501617 18.008068 0.118475 2.998827 0.000000 -180.000000 -12.296071 -1.126789 -1.691976 -5.949150 -0.556749 -0.841293 -1.304698 0.000000 0.000000 -9.121347 0.000000 0.000000 -17.184332 -14.984805 -3.110597 -65.873497 -16.489584 -83.928268 29.509949 -0.621115 74.645859 10.290239 24.954138 -3.632382 -23.383375 0.705316 -8.450544 57.156864 -25.842968 -86.212502 -49.079895 3.418551 73.844124 -45.675797 3.577472 11.723302 -25.925978 40.315952 -68.646606 120.637955 -39.237038 16.358444 70.652306 -49.516846 30.382109 -25.158184 -38.461784 67.060509 122.885201 38.464066 -14.977046 67.103127 49.375446 -27.264416 
0.501617 17.864222 0.201913 2.998827 0.000000 -180.000000 -12.296073 -1.126789 -1.691976 -5.949150 -0.556749 -0.841293 -1.437003 0.000000 0.000000 -9.121346 0.000000 0.000000 -17.146938 -15.332042 -2.927705 -65.873497 -16.489588 -83.928276 29.162374 -0.934864 74.638611 11.211604 23.680405 -3.560486 -22.993891 -0.375321 -8.634121 57.599705 -26.115656 -86.369751 -50.833904 3.376133 73.949997 -45.675797 3.577472 11.723302 -26.280924 40.721802 -68.945145 121.160728 -39.035572 16.009222 70.824928 -49.654327 31.052553 -25.506298 -38.847946 67.351006 123.409363 38.245792 -14.632928 67.232155 49.532963 -27.872280 
0.501617 17.720375 0.285351 2.998827 0.000000 -180.000000 -12.296073 -1.126789 -1.691976 -5.949150 -0.556749 -0.841293 -1.569338 0.000000 0.000000 -9.121347 0.000000 0.000000 -17.108337 -15.679168 -2.744265 -65.873497 -16.489588 -83.928276 28.814707 -1.248570 74.629440 12.122899 22.405317 -3.511416 -22.607656 -1.457399 -8.810431 58.044418 -26.387245 -86.529709 -52.588593 3.330489 74.054558 -45.675797 3.577472 11.723303 -26.640867 41.126247 -69.248848 121.680435 -38.831665 15.663365 71.000511 -49.790485 31.725559 -25.858843 -39.232708 67.646103 123.930290 38.025051 -14.292374 67.364159 49.689571 -28.482676 
0.501617 17.576530 0.368789 2.998827 0.000000 -180.000000 -12.296071 -1.126789 -1.691976 -5.949150 -0.556749 -0.841293 -1.701703 0.000000 0.000000 -9.121347 0.000000 0.000000 -17.068504 -16.026173 -2.560266 -65.873497 -16.489582 -83.928261 28.466942 -1.562217 74.618370 13.024961 21.129679 -3.484525 -22.224514 -2.540636 -8.979558 58.491035 -26.657717 -86.692406 -54.343094 3.281661 74.157661 -45.675793 3.577472 11.723301 -27.005915 41.529236 -69.557846 122.197083 -38.625328 15.320885 71.179070 -49.925301 32.401100 -26.215908 -39.616055 67.945908 124.447990 37.801899 -13.955405 67.499199 49.845284 -29.095606 
0.501617 17.432686 0.452227 2.998827 0.000000 -180.000000 -12.296071 -1.126789 -1.691976 -5.949150 -0.556749 -0.841293 -1.834098 0.000000 0.000000 -9.121346 0.000000 0.000000 -17.027451 -16.373047 -2.375696 -65.873497 -16.489582 -83.928261 28.119070 -1.875780 74.605385 13.918579 19.854269 -3.479208 -21.844265 -3.624752 -9.141562 58.939560 -26.927025 -86.857841 -56.096607 3.229736 74.259163 -45.675793 3.577471 11.723301 -27.376148 41.930702 -69.872208 122.710663 -38.416615 14.981791 71.360573 -50.058735 33.079144 -26.577566 -39.997921 68.250488 124.962440 37.576366 -13.622024 67.637238 50.000023 -29.711046 
0.501617 17.288839 0.535665 2.998827 0.000000 -180.000000 -12.296071 -1.126789 -1.691976 -5.949150 -0.556749 -0.841293 -1.966521 0.000000 0.000000 -9.121347 0.000000 0.000000 -16.985153 -16.719772 -2.190543 -65.873497 -16.489584 -83.928268 27.771090 -2.189234 74.590515 14.804516 18.579882 -3.494898 -21.466719 -4.709466 -9.296505 59.389992 -27.195152 -87.026024 -57.848282 3.174778 74.358940 -45.675797 3.577472 11.723302 -27.751680 42.330608 -70.192047 123.221123 -38.205547 14.646090 71.545021 -50.190777 33.759666 -26.943903 -40.378277 68.559929 125.473633 37.348492 -13.292231 67.778297 50.153782 -30.329000 
0.501617 17.144993 0.619103 2.998827 0.000000 -180.000000 -12.296071 -1.126789 -1.691976 -5.949150 -0.556749 -0.841293 -2.098974 0.000000 0.000000 -9.121347 0.000000 0.000000 -16.941614 -17.066343 -2.004795 -65.873497 -16.489584 -83.928268 27.422972 -2.502565 74.573715 15.683493 17.307280 -3.531059 -21.091696 -5.794502 -9.444439 59.842377 -27.462063 -87.196983 -59.597328 3.116896 74.456833 -45.675797 3.577472 11.723302 -28.132620 42.728905 -70.517471 123.728470 -37.992153 14.313788 71.732391 -50.321365 34.442612 -27.314980 -40.757053 68.874290 125.981583 37.118332 -12.966040 67.922371 50.306534 -30.949450 
0.501617 17.001148 0.702541 2.998827 0.000000 -180.000000 -12.296071 -1.126789 -1.691976 -5.949150 -0.556749 -0.841293 -2.231454 0.000000 0.000000 -9.121347 0.000000 0.000000 -16.896816 -17.412746 -1.818439 -65.873497 -16.489586 -83.928268 27.074732 -2.815745 74.555023 16.556192 16.037220 -3.587188 -20.719011 -6.879582 -9.585417 60.296658 -27.727720 -87.370674 -61.342926 3.056166 74.552742 -45.675797 3.577472 11.723303 -28.519051 43.125523 -70.848557 124.232697 -37.776505 13.984908 71.922684 -50.450504 35.127987 -27.690897 -41.134224 69.193680 126.486267 36.885906 -12.643437 68.069504 50.458282 -31.572395 
0.501617 16.857304 0.785979 2.998827 0.000000 -180.000000 -12.296071 -1.126789 -1.691976 -5.949150 -0.556749 -0.841293 -2.363963 0.000000 0.000000 -9.121347 0.000000 0.000000 -16.850754 -17.758963 -1.631463 -65.873497 -16.489584 -83.928276 26.726347 -3.128751 74.534424 17.423277 14.770458 -3.662817 -20.348488 -7.964432 -9.719480 60.752895 -27.992100 -87.547150 -63.084255 2.992703 74.646530 -45.675797 3.577472 11.723302 -28.911089 43.520397 -71.185425 124.733833 -37.558617 13.659437 72.115860 -50.578148 35.815727 -28.071730 -41.509727 69.518150 126.987724 36.651287 -12.324443 68.219650 50.608940 -32.197811 
0.501617 16.713457 0.869417 2.998827 0.000000 -180.000000 -12.296070 -1.126789 -1.691976 -5.949150 -0.556749 -0.841293 -2.496499 0.000000 0.000000 -9.121347 0.000000 0.000000 -16.803421 -18.104992 -1.443855 -65.873497 -16.489584 -83.928268 26.377815 -3.441570 74.511917 18.285372 13.507720 -3.757502 -19.979929 -9.048780 -9.846663 61.211090 -28.255178 -87.726433 -64.820534 2.926606 74.738075 -45.675797 3.577472 11.723301 -29.308851 43.913513 -71.528206 125.231834 -37.338524 13.337383 72.311882 -50.704254 36.505783 -28.457548 -41.883511 69.847786 127.485893 36.414474 -12.009039 68.372818 50.758511 -32.825676 
